<svg width="140" height="51" viewBox="0 0 140 51" fill="none" xmlns="http://www.w3.org/2000/svg">
<path id="Vector" d="M3.72474 37.6412C5.17553 38.5867 8.76882 41.5057 11.7551 44.1021C19.6486 51.0244 22.2894 52.1361 23.742 49.1986C24.4775 47.6668 22.6269 44.6445 18.9761 41.3163C18.0869 40.5234 17.2949 39.7045 17.2646 39.5913C17.2343 39.4781 20.6859 40.3118 24.8903 41.4289C38.578 45.0987 51.0312 46.4909 63.9712 45.8114C71.7315 45.4289 87.5392 41.0684 95.2616 37.2382C108.806 30.4515 119.123 22.8922 131.13 10.7544C136.953 4.88569 139.289 2.13596 139.237 1.36106C139.125 0.359749 138.867 0.368287 137.325 1.02464C136.301 1.48107 132.967 4.19534 129.872 7.0273C117.297 18.4072 102.568 27.5744 86.6135 33.9155C72.7696 39.3873 59.1856 40.9676 41.8719 39.1195C35.9823 38.515 23.4721 35.7427 20.5125 34.4131C19.2801 33.8943 19.3136 33.8246 21.1874 32.6548C24.1362 30.8327 24.9657 29.4576 24.4505 27.5332C23.5261 24.0805 17.7305 23.6328 8.49355 26.4739C3.14632 28.0899 2.22012 28.5202 1.27831 29.8648C0.500527 31.044 0.339175 31.9973 0.681462 33.6647C1.05094 35.6283 1.44539 36.1291 3.72474 37.6412Z" fill="#ECFFFC"/>
</svg>
