<svg width="31" height="31" viewBox="0 0 31 31" fill="none" xmlns="http://www.w3.org/2000/svg">
<g id="Component 1">
<mask id="mask0_129_1402" style="mask-type:alpha" maskUnits="userSpaceOnUse" x="0" y="0" width="31" height="31">
<rect id="Bounding box" x="0.5" y="0.522461" width="30" height="30" fill="#D9D9D9"/>
</mask>
<g mask="url(#mask0_129_1402)">
<g id="attractions">
<path d="M7.6875 30.499L9.375 26.4995C9.08333 26.2591 8.80208 26.0241 8.53125 25.7946C8.26042 25.5651 8 25.3193 7.75 25.057C7.58333 25.1226 7.42188 25.1717 7.26563 25.2045C7.10938 25.2373 6.9375 25.2537 6.75 25.2537C6.0625 25.2537 5.47396 24.9969 4.98438 24.4833C4.49479 23.9697 4.25 23.3523 4.25 22.631C4.25 22.1939 4.33854 21.7951 4.51562 21.4345C4.69271 21.0738 4.9375 20.7733 5.25 20.5329C5.08333 20.0302 4.96875 19.5221 4.90625 19.0085C4.84375 18.4949 4.8125 17.954 4.8125 17.3857C4.8125 16.8175 4.84375 16.2766 4.90625 15.763C4.96875 15.2494 5.08333 14.7412 5.25 14.2386C4.9375 13.9981 4.69271 13.6976 4.51562 13.337C4.33854 12.9764 4.25 12.5775 4.25 12.1404C4.25 11.4192 4.49479 10.8018 4.98438 10.2882C5.47396 9.77457 6.0625 9.51777 6.75 9.51777C6.9375 9.51777 7.10938 9.53416 7.26563 9.56695C7.42188 9.59973 7.58333 9.6489 7.75 9.71447C8.4375 8.92767 9.22396 8.27201 10.1094 7.74748C10.9948 7.22295 11.9375 6.82955 12.9375 6.56728C13.0417 5.91162 13.3281 5.36523 13.7969 4.92812C14.2656 4.49102 14.8125 4.27246 15.4375 4.27246C16.0625 4.27246 16.6094 4.49648 17.0781 4.94452C17.5469 5.39255 17.8333 5.93348 17.9375 6.56728C18.9375 6.82955 19.8802 7.21748 20.7656 7.73109C21.651 8.24469 22.4375 8.88396 23.125 9.6489C23.2917 9.58334 23.4479 9.53416 23.5938 9.50138C23.7396 9.4686 23.8958 9.4522 24.0625 9.4522C24.75 9.4522 25.3385 9.70901 25.8281 10.2226C26.3177 10.7362 26.5625 11.3536 26.5625 12.0749C26.5625 12.512 26.4792 12.8999 26.3125 13.2387C26.1458 13.5774 25.9167 13.867 25.625 14.1074C25.7917 14.6319 25.9062 15.1674 25.9688 15.7138C26.0312 16.2602 26.0625 16.8175 26.0625 17.3857C26.0625 17.954 26.0312 18.5058 25.9688 19.0413C25.9062 19.5767 25.7917 20.0958 25.625 20.5985C25.9167 20.8389 26.1458 21.1285 26.3125 21.4672C26.4792 21.806 26.5625 22.1939 26.5625 22.631C26.5625 23.3523 26.3177 23.9697 25.8281 24.4833C25.3385 24.9969 24.75 25.2537 24.0625 25.2537C23.8958 25.2537 23.7396 25.2373 23.5938 25.2045C23.4479 25.1717 23.2917 25.1226 23.125 25.057C22.875 25.3193 22.6198 25.5761 22.3594 25.8274C22.099 26.0787 21.8125 26.3246 21.5 26.565L23.125 30.499H20.8125L19.625 27.6141C19.3333 27.7452 19.0521 27.86 18.7812 27.9583C18.5104 28.0567 18.2292 28.1386 17.9375 28.2042C17.8333 28.838 17.5469 29.3789 17.0781 29.827C16.6094 30.275 16.0625 30.499 15.4375 30.499C14.8125 30.499 14.2656 30.2805 13.7969 29.8433C13.3281 29.4062 13.0417 28.8599 12.9375 28.2042C12.625 28.1386 12.3281 28.0567 12.0469 27.9583C11.7656 27.86 11.4792 27.7452 11.1875 27.6141L10 30.499H7.6875ZM10.0625 24.7947L12 20.2051C11.7083 19.8117 11.4792 19.3746 11.3125 18.8938C11.1458 18.4129 11.0625 17.9103 11.0625 17.3857C11.0625 16.14 11.4948 15.0636 12.3594 14.1566C13.224 13.2496 14.25 12.7961 15.4375 12.7961C16.625 12.7961 17.651 13.2496 18.5156 14.1566C19.3802 15.0636 19.8125 16.14 19.8125 17.3857C19.8125 17.9103 19.724 18.4239 19.5469 18.9265C19.3698 19.4292 19.125 19.8773 18.8125 20.2707L20.75 24.7947C20.9375 24.6199 21.1198 24.4614 21.2969 24.3194C21.474 24.1773 21.6458 24.0079 21.8125 23.8112C21.7083 23.6364 21.6406 23.4452 21.6094 23.2375C21.5781 23.0299 21.5625 22.8277 21.5625 22.631C21.5625 21.9317 21.7917 21.3306 22.25 20.828C22.7083 20.3253 23.2708 20.0521 23.9375 20.0084C24.0625 19.5713 24.1562 19.1396 24.2188 18.7135C24.2812 18.2873 24.3125 17.8447 24.3125 17.3857C24.3125 16.9268 24.2812 16.4733 24.2188 16.0252C24.1562 15.5772 24.0625 15.1346 23.9375 14.6975C23.2708 14.6538 22.7083 14.3806 22.25 13.8779C21.7917 13.3753 21.5625 12.7742 21.5625 12.0749C21.5625 11.8782 21.5885 11.6869 21.6406 11.5012C21.6927 11.3154 21.75 11.1351 21.8125 10.9602C21.2083 10.3264 20.5417 9.79096 19.8125 9.35386C19.0833 8.91675 18.3125 8.57799 17.5 8.33758C17.2708 8.70912 16.9792 8.9987 16.625 9.20633C16.2708 9.41396 15.875 9.51777 15.4375 9.51777C15 9.51777 14.6042 9.41396 14.25 9.20633C13.8958 8.9987 13.6042 8.70912 13.375 8.33758C12.5208 8.57799 11.7292 8.92221 11 9.37025C10.2708 9.81828 9.60417 10.3701 9 11.0258C9.0625 11.2006 9.11979 11.3809 9.17188 11.5667C9.22396 11.7525 9.25 11.9437 9.25 12.1404C9.25 12.8398 9.03125 13.4354 8.59375 13.9271C8.15625 14.4189 7.60417 14.6975 6.9375 14.7631C6.8125 15.2002 6.71875 15.6318 6.65625 16.058C6.59375 16.4842 6.5625 16.9268 6.5625 17.3857C6.5625 17.8447 6.59375 18.2873 6.65625 18.7135C6.71875 19.1396 6.8125 19.5713 6.9375 20.0084C7.60417 20.0521 8.15625 20.3253 8.59375 20.828C9.03125 21.3306 9.25 21.9317 9.25 22.631C9.25 22.8277 9.23438 23.019 9.20312 23.2048C9.17188 23.3905 9.10417 23.5708 9 23.7457C9.16667 23.9424 9.33854 24.1227 9.51562 24.2866C9.69271 24.4505 9.875 24.6199 10.0625 24.7947ZM11.9375 25.9094C12.1667 26.0186 12.401 26.117 12.6406 26.2044C12.8802 26.2918 13.125 26.3683 13.375 26.4339C13.6042 26.0624 13.8958 25.7728 14.25 25.5651C14.6042 25.3575 15 25.2537 15.4375 25.2537C15.875 25.2537 16.2708 25.3575 16.625 25.5651C16.9792 25.7728 17.2708 26.0624 17.5 26.4339C17.75 26.3683 17.9844 26.2918 18.2031 26.2044C18.4219 26.117 18.6458 26.0186 18.875 25.9094L17.0625 21.6476C16.8125 21.7568 16.5521 21.8388 16.2812 21.8934C16.0104 21.9481 15.7292 21.9754 15.4375 21.9754C15.125 21.9754 14.8281 21.9426 14.5469 21.877C14.2656 21.8115 14 21.7131 13.75 21.582L11.9375 25.9094ZM15.4375 19.3527C15.9375 19.3527 16.375 19.167 16.75 18.7954C17.125 18.4239 17.3125 17.954 17.3125 17.3857C17.3125 16.8612 17.125 16.4022 16.75 16.0088C16.375 15.6154 15.9375 15.4187 15.4375 15.4187C14.8958 15.4187 14.4479 15.6154 14.0938 16.0088C13.7396 16.4022 13.5625 16.8612 13.5625 17.3857C13.5625 17.954 13.7396 18.4239 14.0938 18.7954C14.4479 19.167 14.8958 19.3527 15.4375 19.3527Z" fill="#0077EC"/>
<path d="M7.6875 30.499L9.375 26.4995C9.08333 26.2591 8.80208 26.0241 8.53125 25.7946C8.26042 25.5651 8 25.3193 7.75 25.057C7.58333 25.1226 7.42188 25.1717 7.26563 25.2045C7.10938 25.2373 6.9375 25.2537 6.75 25.2537C6.0625 25.2537 5.47396 24.9969 4.98438 24.4833C4.49479 23.9697 4.25 23.3523 4.25 22.631C4.25 22.1939 4.33854 21.7951 4.51562 21.4345C4.69271 21.0738 4.9375 20.7733 5.25 20.5329C5.08333 20.0302 4.96875 19.5221 4.90625 19.0085C4.84375 18.4949 4.8125 17.954 4.8125 17.3857C4.8125 16.8175 4.84375 16.2766 4.90625 15.763C4.96875 15.2494 5.08333 14.7412 5.25 14.2386C4.9375 13.9981 4.69271 13.6976 4.51562 13.337C4.33854 12.9764 4.25 12.5775 4.25 12.1404C4.25 11.4192 4.49479 10.8018 4.98438 10.2882C5.47396 9.77457 6.0625 9.51777 6.75 9.51777C6.9375 9.51777 7.10938 9.53416 7.26563 9.56695C7.42188 9.59973 7.58333 9.6489 7.75 9.71447C8.4375 8.92767 9.22396 8.27201 10.1094 7.74748C10.9948 7.22295 11.9375 6.82955 12.9375 6.56728C13.0417 5.91162 13.3281 5.36523 13.7969 4.92812C14.2656 4.49102 14.8125 4.27246 15.4375 4.27246C16.0625 4.27246 16.6094 4.49648 17.0781 4.94452C17.5469 5.39255 17.8333 5.93348 17.9375 6.56728C18.9375 6.82955 19.8802 7.21748 20.7656 7.73109C21.651 8.24469 22.4375 8.88396 23.125 9.6489C23.2917 9.58334 23.4479 9.53416 23.5938 9.50138C23.7396 9.4686 23.8958 9.4522 24.0625 9.4522C24.75 9.4522 25.3385 9.70901 25.8281 10.2226C26.3177 10.7362 26.5625 11.3536 26.5625 12.0749C26.5625 12.512 26.4792 12.8999 26.3125 13.2387C26.1458 13.5774 25.9167 13.867 25.625 14.1074C25.7917 14.6319 25.9062 15.1674 25.9688 15.7138C26.0312 16.2602 26.0625 16.8175 26.0625 17.3857C26.0625 17.954 26.0312 18.5058 25.9688 19.0413C25.9062 19.5767 25.7917 20.0958 25.625 20.5985C25.9167 20.8389 26.1458 21.1285 26.3125 21.4672C26.4792 21.806 26.5625 22.1939 26.5625 22.631C26.5625 23.3523 26.3177 23.9697 25.8281 24.4833C25.3385 24.9969 24.75 25.2537 24.0625 25.2537C23.8958 25.2537 23.7396 25.2373 23.5938 25.2045C23.4479 25.1717 23.2917 25.1226 23.125 25.057C22.875 25.3193 22.6198 25.5761 22.3594 25.8274C22.099 26.0787 21.8125 26.3246 21.5 26.565L23.125 30.499H20.8125L19.625 27.6141C19.3333 27.7452 19.0521 27.86 18.7812 27.9583C18.5104 28.0567 18.2292 28.1386 17.9375 28.2042C17.8333 28.838 17.5469 29.3789 17.0781 29.827C16.6094 30.275 16.0625 30.499 15.4375 30.499C14.8125 30.499 14.2656 30.2805 13.7969 29.8433C13.3281 29.4062 13.0417 28.8599 12.9375 28.2042C12.625 28.1386 12.3281 28.0567 12.0469 27.9583C11.7656 27.86 11.4792 27.7452 11.1875 27.6141L10 30.499H7.6875ZM10.0625 24.7947L12 20.2051C11.7083 19.8117 11.4792 19.3746 11.3125 18.8938C11.1458 18.4129 11.0625 17.9103 11.0625 17.3857C11.0625 16.14 11.4948 15.0636 12.3594 14.1566C13.224 13.2496 14.25 12.7961 15.4375 12.7961C16.625 12.7961 17.651 13.2496 18.5156 14.1566C19.3802 15.0636 19.8125 16.14 19.8125 17.3857C19.8125 17.9103 19.724 18.4239 19.5469 18.9265C19.3698 19.4292 19.125 19.8773 18.8125 20.2707L20.75 24.7947C20.9375 24.6199 21.1198 24.4614 21.2969 24.3194C21.474 24.1773 21.6458 24.0079 21.8125 23.8112C21.7083 23.6364 21.6406 23.4452 21.6094 23.2375C21.5781 23.0299 21.5625 22.8277 21.5625 22.631C21.5625 21.9317 21.7917 21.3306 22.25 20.828C22.7083 20.3253 23.2708 20.0521 23.9375 20.0084C24.0625 19.5713 24.1562 19.1396 24.2188 18.7135C24.2812 18.2873 24.3125 17.8447 24.3125 17.3857C24.3125 16.9268 24.2812 16.4733 24.2188 16.0252C24.1562 15.5772 24.0625 15.1346 23.9375 14.6975C23.2708 14.6538 22.7083 14.3806 22.25 13.8779C21.7917 13.3753 21.5625 12.7742 21.5625 12.0749C21.5625 11.8782 21.5885 11.6869 21.6406 11.5012C21.6927 11.3154 21.75 11.1351 21.8125 10.9602C21.2083 10.3264 20.5417 9.79096 19.8125 9.35386C19.0833 8.91675 18.3125 8.57799 17.5 8.33758C17.2708 8.70912 16.9792 8.9987 16.625 9.20633C16.2708 9.41396 15.875 9.51777 15.4375 9.51777C15 9.51777 14.6042 9.41396 14.25 9.20633C13.8958 8.9987 13.6042 8.70912 13.375 8.33758C12.5208 8.57799 11.7292 8.92221 11 9.37025C10.2708 9.81828 9.60417 10.3701 9 11.0258C9.0625 11.2006 9.11979 11.3809 9.17188 11.5667C9.22396 11.7525 9.25 11.9437 9.25 12.1404C9.25 12.8398 9.03125 13.4354 8.59375 13.9271C8.15625 14.4189 7.60417 14.6975 6.9375 14.7631C6.8125 15.2002 6.71875 15.6318 6.65625 16.058C6.59375 16.4842 6.5625 16.9268 6.5625 17.3857C6.5625 17.8447 6.59375 18.2873 6.65625 18.7135C6.71875 19.1396 6.8125 19.5713 6.9375 20.0084C7.60417 20.0521 8.15625 20.3253 8.59375 20.828C9.03125 21.3306 9.25 21.9317 9.25 22.631C9.25 22.8277 9.23438 23.019 9.20312 23.2048C9.17188 23.3905 9.10417 23.5708 9 23.7457C9.16667 23.9424 9.33854 24.1227 9.51562 24.2866C9.69271 24.4505 9.875 24.6199 10.0625 24.7947ZM11.9375 25.9094C12.1667 26.0186 12.401 26.117 12.6406 26.2044C12.8802 26.2918 13.125 26.3683 13.375 26.4339C13.6042 26.0624 13.8958 25.7728 14.25 25.5651C14.6042 25.3575 15 25.2537 15.4375 25.2537C15.875 25.2537 16.2708 25.3575 16.625 25.5651C16.9792 25.7728 17.2708 26.0624 17.5 26.4339C17.75 26.3683 17.9844 26.2918 18.2031 26.2044C18.4219 26.117 18.6458 26.0186 18.875 25.9094L17.0625 21.6476C16.8125 21.7568 16.5521 21.8388 16.2812 21.8934C16.0104 21.9481 15.7292 21.9754 15.4375 21.9754C15.125 21.9754 14.8281 21.9426 14.5469 21.877C14.2656 21.8115 14 21.7131 13.75 21.582L11.9375 25.9094ZM15.4375 19.3527C15.9375 19.3527 16.375 19.167 16.75 18.7954C17.125 18.4239 17.3125 17.954 17.3125 17.3857C17.3125 16.8612 17.125 16.4022 16.75 16.0088C16.375 15.6154 15.9375 15.4187 15.4375 15.4187C14.8958 15.4187 14.4479 15.6154 14.0938 16.0088C13.7396 16.4022 13.5625 16.8612 13.5625 17.3857C13.5625 17.954 13.7396 18.4239 14.0938 18.7954C14.4479 19.167 14.8958 19.3527 15.4375 19.3527Z" fill="#0077EC"/>
<path d="M7.6875 30.499L9.375 26.4995C9.08333 26.2591 8.80208 26.0241 8.53125 25.7946C8.26042 25.5651 8 25.3193 7.75 25.057C7.58333 25.1226 7.42188 25.1717 7.26563 25.2045C7.10938 25.2373 6.9375 25.2537 6.75 25.2537C6.0625 25.2537 5.47396 24.9969 4.98438 24.4833C4.49479 23.9697 4.25 23.3523 4.25 22.631C4.25 22.1939 4.33854 21.7951 4.51562 21.4345C4.69271 21.0738 4.9375 20.7733 5.25 20.5329C5.08333 20.0302 4.96875 19.5221 4.90625 19.0085C4.84375 18.4949 4.8125 17.954 4.8125 17.3857C4.8125 16.8175 4.84375 16.2766 4.90625 15.763C4.96875 15.2494 5.08333 14.7412 5.25 14.2386C4.9375 13.9981 4.69271 13.6976 4.51562 13.337C4.33854 12.9764 4.25 12.5775 4.25 12.1404C4.25 11.4192 4.49479 10.8018 4.98438 10.2882C5.47396 9.77457 6.0625 9.51777 6.75 9.51777C6.9375 9.51777 7.10938 9.53416 7.26563 9.56695C7.42188 9.59973 7.58333 9.6489 7.75 9.71447C8.4375 8.92767 9.22396 8.27201 10.1094 7.74748C10.9948 7.22295 11.9375 6.82955 12.9375 6.56728C13.0417 5.91162 13.3281 5.36523 13.7969 4.92812C14.2656 4.49102 14.8125 4.27246 15.4375 4.27246C16.0625 4.27246 16.6094 4.49648 17.0781 4.94452C17.5469 5.39255 17.8333 5.93348 17.9375 6.56728C18.9375 6.82955 19.8802 7.21748 20.7656 7.73109C21.651 8.24469 22.4375 8.88396 23.125 9.6489C23.2917 9.58334 23.4479 9.53416 23.5938 9.50138C23.7396 9.4686 23.8958 9.4522 24.0625 9.4522C24.75 9.4522 25.3385 9.70901 25.8281 10.2226C26.3177 10.7362 26.5625 11.3536 26.5625 12.0749C26.5625 12.512 26.4792 12.8999 26.3125 13.2387C26.1458 13.5774 25.9167 13.867 25.625 14.1074C25.7917 14.6319 25.9062 15.1674 25.9688 15.7138C26.0312 16.2602 26.0625 16.8175 26.0625 17.3857C26.0625 17.954 26.0312 18.5058 25.9688 19.0413C25.9062 19.5767 25.7917 20.0958 25.625 20.5985C25.9167 20.8389 26.1458 21.1285 26.3125 21.4672C26.4792 21.806 26.5625 22.1939 26.5625 22.631C26.5625 23.3523 26.3177 23.9697 25.8281 24.4833C25.3385 24.9969 24.75 25.2537 24.0625 25.2537C23.8958 25.2537 23.7396 25.2373 23.5938 25.2045C23.4479 25.1717 23.2917 25.1226 23.125 25.057C22.875 25.3193 22.6198 25.5761 22.3594 25.8274C22.099 26.0787 21.8125 26.3246 21.5 26.565L23.125 30.499H20.8125L19.625 27.6141C19.3333 27.7452 19.0521 27.86 18.7812 27.9583C18.5104 28.0567 18.2292 28.1386 17.9375 28.2042C17.8333 28.838 17.5469 29.3789 17.0781 29.827C16.6094 30.275 16.0625 30.499 15.4375 30.499C14.8125 30.499 14.2656 30.2805 13.7969 29.8433C13.3281 29.4062 13.0417 28.8599 12.9375 28.2042C12.625 28.1386 12.3281 28.0567 12.0469 27.9583C11.7656 27.86 11.4792 27.7452 11.1875 27.6141L10 30.499H7.6875ZM10.0625 24.7947L12 20.2051C11.7083 19.8117 11.4792 19.3746 11.3125 18.8938C11.1458 18.4129 11.0625 17.9103 11.0625 17.3857C11.0625 16.14 11.4948 15.0636 12.3594 14.1566C13.224 13.2496 14.25 12.7961 15.4375 12.7961C16.625 12.7961 17.651 13.2496 18.5156 14.1566C19.3802 15.0636 19.8125 16.14 19.8125 17.3857C19.8125 17.9103 19.724 18.4239 19.5469 18.9265C19.3698 19.4292 19.125 19.8773 18.8125 20.2707L20.75 24.7947C20.9375 24.6199 21.1198 24.4614 21.2969 24.3194C21.474 24.1773 21.6458 24.0079 21.8125 23.8112C21.7083 23.6364 21.6406 23.4452 21.6094 23.2375C21.5781 23.0299 21.5625 22.8277 21.5625 22.631C21.5625 21.9317 21.7917 21.3306 22.25 20.828C22.7083 20.3253 23.2708 20.0521 23.9375 20.0084C24.0625 19.5713 24.1562 19.1396 24.2188 18.7135C24.2812 18.2873 24.3125 17.8447 24.3125 17.3857C24.3125 16.9268 24.2812 16.4733 24.2188 16.0252C24.1562 15.5772 24.0625 15.1346 23.9375 14.6975C23.2708 14.6538 22.7083 14.3806 22.25 13.8779C21.7917 13.3753 21.5625 12.7742 21.5625 12.0749C21.5625 11.8782 21.5885 11.6869 21.6406 11.5012C21.6927 11.3154 21.75 11.1351 21.8125 10.9602C21.2083 10.3264 20.5417 9.79096 19.8125 9.35386C19.0833 8.91675 18.3125 8.57799 17.5 8.33758C17.2708 8.70912 16.9792 8.9987 16.625 9.20633C16.2708 9.41396 15.875 9.51777 15.4375 9.51777C15 9.51777 14.6042 9.41396 14.25 9.20633C13.8958 8.9987 13.6042 8.70912 13.375 8.33758C12.5208 8.57799 11.7292 8.92221 11 9.37025C10.2708 9.81828 9.60417 10.3701 9 11.0258C9.0625 11.2006 9.11979 11.3809 9.17188 11.5667C9.22396 11.7525 9.25 11.9437 9.25 12.1404C9.25 12.8398 9.03125 13.4354 8.59375 13.9271C8.15625 14.4189 7.60417 14.6975 6.9375 14.7631C6.8125 15.2002 6.71875 15.6318 6.65625 16.058C6.59375 16.4842 6.5625 16.9268 6.5625 17.3857C6.5625 17.8447 6.59375 18.2873 6.65625 18.7135C6.71875 19.1396 6.8125 19.5713 6.9375 20.0084C7.60417 20.0521 8.15625 20.3253 8.59375 20.828C9.03125 21.3306 9.25 21.9317 9.25 22.631C9.25 22.8277 9.23438 23.019 9.20312 23.2048C9.17188 23.3905 9.10417 23.5708 9 23.7457C9.16667 23.9424 9.33854 24.1227 9.51562 24.2866C9.69271 24.4505 9.875 24.6199 10.0625 24.7947ZM11.9375 25.9094C12.1667 26.0186 12.401 26.117 12.6406 26.2044C12.8802 26.2918 13.125 26.3683 13.375 26.4339C13.6042 26.0624 13.8958 25.7728 14.25 25.5651C14.6042 25.3575 15 25.2537 15.4375 25.2537C15.875 25.2537 16.2708 25.3575 16.625 25.5651C16.9792 25.7728 17.2708 26.0624 17.5 26.4339C17.75 26.3683 17.9844 26.2918 18.2031 26.2044C18.4219 26.117 18.6458 26.0186 18.875 25.9094L17.0625 21.6476C16.8125 21.7568 16.5521 21.8388 16.2812 21.8934C16.0104 21.9481 15.7292 21.9754 15.4375 21.9754C15.125 21.9754 14.8281 21.9426 14.5469 21.877C14.2656 21.8115 14 21.7131 13.75 21.582L11.9375 25.9094ZM15.4375 19.3527C15.9375 19.3527 16.375 19.167 16.75 18.7954C17.125 18.4239 17.3125 17.954 17.3125 17.3857C17.3125 16.8612 17.125 16.4022 16.75 16.0088C16.375 15.6154 15.9375 15.4187 15.4375 15.4187C14.8958 15.4187 14.4479 15.6154 14.0938 16.0088C13.7396 16.4022 13.5625 16.8612 13.5625 17.3857C13.5625 17.954 13.7396 18.4239 14.0938 18.7954C14.4479 19.167 14.8958 19.3527 15.4375 19.3527Z" fill="#005DB9"/>
</g>
</g>
</g>
</svg>
