<svg width="221" height="220" viewBox="0 0 221 220" fill="none" xmlns="http://www.w3.org/2000/svg">
<g id="QR_Code_1710417688 1" clip-path="url(#clip0_1068_830)">
<g id="Group">
<path id="Vector" d="M220.363 0H0.363281V220H220.363V0Z" fill="white"/>
<g id="Group_2">
<path id="Vector_2" d="M13.3047 28.0376V43.1357H28.4028H43.501V28.0376V12.9394H28.4028H13.3047V28.0376ZM39.1872 28.0376V38.822H28.4028H17.6184V28.0376V17.2532H28.4028H39.1872V28.0376Z" fill="black"/>
<path id="Vector_3" d="M21.9326 28.0372V34.5078H28.4033H34.8739V28.0372V21.5665H28.4033H21.9326V28.0372Z" fill="black"/>
<path id="Vector_4" d="M52.1282 15.0965V17.2533H49.9713H47.8145V21.5671V25.8809H49.9713H52.1282V21.5671V17.2533H54.2851H56.442V15.0965V12.9396H54.2851H52.1282V15.0965Z" fill="black"/>
<path id="Vector_5" d="M65.0698 15.0962V17.2531H62.9129H60.7561V21.5668V25.8806H58.5992H56.4423V28.0375V30.1943H52.1285H47.8148V38.8219V47.4494H43.501H39.1873V49.6063V51.7632H43.501H47.8148V49.6063V47.4494H49.9717H52.1285V43.1356V38.8219H54.2854H56.4423V40.9787V43.1356H58.5992H60.7561V45.2925V47.4494H58.5992H56.4423V49.6063V51.7632H58.5992H60.7561V58.2338V64.7044H58.5992H56.4423V66.8613V69.0182H52.1285H47.8148V73.332V77.6457H49.9717H52.1285V75.4888V73.332H54.2854H56.4423V71.1751V69.0182H60.7561H65.0698V71.1751V73.332H71.5405H78.0111V77.6457V81.9595H71.5405H65.0698V84.1164V86.2732H62.9129H60.7561V84.1164V81.9595H58.5992H56.4423V84.1164V86.2732H54.2854H52.1285V84.1164V81.9595H49.9717H47.8148V84.1164V86.2732H45.6579H43.501V84.1164V81.9595H41.3441H39.1873V79.8026V77.6457H41.3441H43.501V75.4888V73.332H41.3441H39.1873V75.4888V77.6457H34.8735H30.5597V73.332V69.0182H28.4028H26.246V71.1751V73.332H24.0891H21.9322V75.4888V77.6457H17.6184H13.3047V79.8026V81.9595H17.6184H21.9322V92.7439V103.528H24.0891H26.246V105.685V107.842H21.9322H17.6184V105.685V103.528H15.4616H13.3047V105.685V107.842H15.4616H17.6184V109.999V112.156H15.4616H13.3047V116.47V120.783H15.4616H17.6184V122.94V125.097H15.4616H13.3047V127.254V129.411H15.4616H17.6184V127.254V125.097H19.7753H21.9322V133.725V142.352H19.7753H17.6184V138.038V133.725H15.4616H13.3047V146.666V159.607H17.6184H21.9322V157.45V155.293H19.7753H17.6184V150.98V146.666H19.7753H21.9322V148.823V150.98H24.0891H26.246V142.352V133.725H28.4028H30.5597V135.882V138.038H32.7166H34.8735V135.882V133.725H32.7166H30.5597V131.568V129.411H28.4028H26.246V127.254V125.097H28.4028H30.5597V122.94V120.783H37.0304H43.501V122.94V125.097H39.1873H34.8735V127.254V129.411H39.1873H43.501V127.254V125.097H45.6579H47.8148V122.94V120.783H49.9717H52.1285V116.47V112.156H54.2854H56.4423V116.47V120.783H58.5992H60.7561V122.94V125.097H62.9129H65.0698V127.254V129.411H60.7561H56.4423V127.254V125.097H54.2854H52.1285V127.254V129.411H54.2854H56.4423V131.568V133.725H47.8148H39.1873V135.882V138.038H43.501H47.8148V140.195V142.352H43.501H39.1873V144.509V146.666H43.501H47.8148V148.823V150.98H43.501H39.1873V153.137V155.293H37.0304H34.8735V157.45V159.607H32.7166H30.5597V157.45V155.293H28.4028H26.246V157.45V159.607H28.4028H30.5597V161.764V163.921H24.0891H17.6184V166.078V168.235H15.4616H13.3047V170.392V172.548H15.4616H17.6184V170.392V168.235H21.9322H26.246V170.392V172.548H30.5597H34.8735V166.078V159.607H37.0304H39.1873V161.764V163.921H41.3441H43.501V161.764V159.607H49.9717H56.4423V163.921V168.235H60.7561H65.0698V170.392V172.548H69.3836H73.6973V174.705V176.862H71.5405H69.3836V181.176V185.49H67.2267H65.0698V183.333V181.176H60.7561H56.4423V179.019V176.862H58.5992H60.7561V174.705V172.548H58.5992H56.4423V174.705V176.862H54.2854H52.1285V174.705V172.548H49.9717H47.8148V170.392V168.235H49.9717H52.1285V166.078V163.921H49.9717H47.8148V166.078V168.235H43.501H39.1873V170.392V172.548H43.501H47.8148V176.862V181.176H49.9717H52.1285V185.49V189.804H49.9717H47.8148V191.96V194.117H49.9717H52.1285V191.96V189.804H54.2854H56.4423V194.117V198.431H58.5992H60.7561V200.588V202.745H58.5992H56.4423V204.902V207.059H58.5992H60.7561V204.902V202.745H62.9129H65.0698V200.588V198.431H67.2267H69.3836V196.274V194.117H73.6973H78.0111V191.96V189.804H73.6973H69.3836V187.647V185.49H73.6973H78.0111V183.333V181.176H80.168H82.3249V185.49V189.804H84.4817H86.6386V191.96V194.117H90.9524H95.2661V191.96V189.804H97.423H99.5799V194.117V198.431H101.737H103.894V200.588V202.745H110.364H116.835V204.902V207.059H121.149H125.462V202.745V198.431H118.992H112.521V196.274V194.117H116.835H121.149V187.647V181.176H125.462H129.776V183.333V185.49H127.619H125.462V189.804V194.117H127.619H129.776V191.96V189.804H131.933H134.09V187.647V185.49H136.247H138.404V189.804V194.117H136.247H134.09V198.431V202.745H131.933H129.776V204.902V207.059H134.09H138.404V200.588V194.117H140.561H142.717V196.274V198.431H144.874H147.031V200.588V202.745H144.874H142.717V204.902V207.059H147.031H151.345V200.588V194.117H153.502H155.659V191.96V189.804H159.973H164.286V194.117V198.431H159.973H155.659V200.588V202.745H157.816H159.973V204.902V207.059H162.129H164.286V202.745V198.431H168.6H172.914V200.588V202.745H170.757H168.6V204.902V207.059H170.757H172.914V204.902V202.745H175.071H177.228V204.902V207.059H181.541H185.855V204.902V202.745H181.541H177.228V200.588V198.431H183.698H190.169V200.588V202.745H192.326H194.483V200.588V198.431H192.326H190.169V191.96V185.49H192.326H194.483V183.333V181.176H192.326H190.169V176.862V172.548H192.326H194.483V174.705V176.862H200.953H207.424V172.548V168.235H205.267H203.11V166.078V163.921H205.267H207.424V159.607V155.293H203.11H198.796V157.45V159.607H192.326H185.855V155.293V150.98H188.012H190.169V153.137V155.293H192.326H194.483V150.98V146.666H192.326H190.169V144.509V142.352H183.698H177.228V140.195V138.038H183.698H190.169V135.882V133.725H183.698H177.228V129.411V125.097H175.071H172.914V122.94V120.783H177.228H181.541V125.097V129.411H183.698H185.855V127.254V125.097H188.012H190.169V127.254V129.411H194.483H198.796V131.568V133.725H196.64H194.483V138.038V142.352H196.64H198.796V146.666V150.98H200.953H203.11V148.823V146.666H205.267H207.424V144.509V142.352H203.11H198.796V140.195V138.038H200.953H203.11V131.568V125.097H205.267H207.424V116.47V107.842H205.267H203.11V109.999V112.156H200.953H198.796V116.47V120.783H196.64H194.483V118.626V116.47H192.326H190.169V114.313V112.156H192.326H194.483V105.685V99.2145H183.698H172.914V97.0577V94.9008H175.071H177.228V92.7439V90.587H181.541H185.855V92.7439V94.9008H190.169H194.483V92.7439V90.587H192.326H190.169V88.4301V86.2732H192.326H194.483V84.1164V81.9595H192.326H190.169V79.8026V77.6457H194.483H198.796V79.8026V81.9595H200.953H203.11V84.1164V86.2732H205.267H207.424V81.9595V77.6457H205.267H203.11V73.332V69.0182H205.267H207.424V60.3907V51.7632H205.267H203.11V49.6063V47.4494H198.796H194.483V49.6063V51.7632H192.326H190.169V49.6063V47.4494H183.698H177.228V49.6063V51.7632H183.698H190.169V53.92V56.0769H185.855H181.541V58.2338V60.3907H179.384H177.228V58.2338V56.0769H175.071H172.914V66.8613V77.6457H170.757H168.6V75.4888V73.332H166.443H164.286V69.0182V64.7044H162.129H159.973V62.5476V60.3907H162.129H164.286V58.2338V56.0769H166.443H168.6V51.7632V47.4494H170.757H172.914V43.1356V38.8219H170.757H168.6V43.1356V47.4494H166.443H164.286V51.7632V56.0769H162.129H159.973V58.2338V60.3907H157.816H155.659V62.5476V64.7044H151.345H147.031V69.0182V73.332H151.345H155.659V75.4888V77.6457H151.345H147.031V79.8026V81.9595H144.874H142.717V84.1164V86.2732H140.561H138.404V88.4301V90.587H136.247H134.09V92.7439V94.9008H131.933H129.776V90.587V86.2732H131.933H134.09V84.1164V81.9595H131.933H129.776V77.6457V73.332H127.619H125.462V71.1751V69.0182H129.776H134.09V71.1751V73.332H138.404H142.717V71.1751V69.0182H140.561H138.404V66.8613V64.7044H140.561H142.717V60.3907V56.0769H140.561H138.404V51.7632V47.4494H140.561H142.717V49.6063V51.7632H147.031H151.345V53.92V56.0769H153.502H155.659V53.92V51.7632H153.502H151.345V49.6063V47.4494H149.188H147.031V40.9787V34.5081H149.188H151.345V38.8219V43.1356H153.502H155.659V40.9787V38.8219H157.816H159.973V40.9787V43.1356H162.129H164.286V40.9787V38.8219H162.129H159.973V36.665V34.5081H166.443H172.914V30.1943V25.8806H170.757H168.6V21.5668V17.2531H170.757H172.914V15.0962V12.9393H170.757H168.6V15.0962V17.2531H166.443H164.286V23.7237V30.1943H162.129H159.973V32.3512V34.5081H155.659H151.345V32.3512V30.1943H147.031H142.717V28.0375V25.8806H149.188H155.659V21.5668V17.2531H151.345H147.031V15.0962V12.9393H142.717H138.404V15.0962V17.2531H136.247H134.09V19.4099V21.5668H131.933H129.776V17.2531V12.9393H127.619H125.462V15.0962V17.2531H123.306H121.149V19.4099V21.5668H118.992H116.835V17.2531V12.9393H114.678H112.521V17.2531V21.5668H108.207H103.894V19.4099V17.2531H106.051H108.207V15.0962V12.9393H103.894H99.5799V15.0962V17.2531H97.423H95.2661V23.7237V30.1943H97.423H99.5799V32.3512V34.5081H95.2661H90.9524V28.0375V21.5668H84.4817H78.0111V17.2531V12.9393H75.8542H73.6973V19.4099V25.8806H71.5405H69.3836V28.0375V30.1943H71.5405H73.6973V28.0375V25.8806H80.168H86.6386V30.1943V34.5081H84.4817H82.3249V32.3512V30.1943H80.168H78.0111V34.5081V38.8219H75.8542H73.6973V43.1356V47.4494H71.5405H69.3836V40.9787V34.5081H65.0698H60.7561V36.665V38.8219H58.5992H56.4423V34.5081V30.1943H60.7561H65.0698V25.8806V21.5668H67.2267H69.3836V17.2531V12.9393H67.2267H65.0698V15.0962ZM147.031 19.4099V21.5668H144.874H142.717V23.7237V25.8806H140.561H138.404V28.0375V30.1943H136.247H134.09V32.3512V34.5081H136.247H138.404V36.665V38.8219H140.561H142.717V40.9787V43.1356H140.561H138.404V45.2925V47.4494H134.09H129.776V51.7632V56.0769H121.149H112.521V58.2338V60.3907H116.835H121.149V62.5476V64.7044H123.306H125.462V66.8613V69.0182H123.306H121.149V71.1751V73.332H123.306H125.462V75.4888V77.6457H123.306H121.149V79.8026V81.9595H118.992H116.835V84.1164V86.2732H114.678H112.521V88.4301V90.587H114.678H116.835V92.7439V94.9008H112.521H108.207V97.0577V99.2145H103.894H99.5799V97.0577V94.9008H97.423H95.2661V97.0577V99.2145H93.1093H90.9524V97.0577V94.9008H86.6386H82.3249V97.0577V99.2145H84.4817H86.6386V101.371V103.528H88.7955H90.9524V109.999V116.47H86.6386H82.3249V120.783V125.097H84.4817H86.6386V127.254V129.411H88.7955H90.9524V127.254V125.097H97.423H103.894V122.94V120.783H106.051H108.207V127.254V133.725H112.521H116.835V131.568V129.411H114.678H112.521V125.097V120.783H114.678H116.835V122.94V125.097H118.992H121.149V131.568V138.038H123.306H125.462V129.411V120.783H123.306H121.149V112.156V103.528H123.306H125.462V99.2145V94.9008H123.306H121.149V90.587V86.2732H123.306H125.462V84.1164V81.9595H127.619H129.776V84.1164V86.2732H127.619H125.462V90.587V94.9008H127.619H129.776V101.371V107.842H131.933H134.09V105.685V103.528H136.247H138.404V101.371V99.2145H140.561H142.717V97.0577V94.9008H144.874H147.031V92.7439V90.587H144.874H142.717V88.4301V86.2732H147.031H151.345V88.4301V90.587H153.502H155.659V88.4301V86.2732H159.973H164.286V90.587V94.9008H166.443H168.6V88.4301V81.9595H172.914H177.228V79.8026V77.6457H179.384H181.541V75.4888V73.332H179.384H177.228V71.1751V69.0182H179.384H181.541V71.1751V73.332H183.698H185.855V75.4888V77.6457H183.698H181.541V79.8026V81.9595H185.855H190.169V84.1164V86.2732H183.698H177.228V88.4301V90.587H175.071H172.914V92.7439V94.9008H170.757H168.6V97.0577V99.2145H166.443H164.286V101.371V103.528H166.443H168.6V105.685V107.842H164.286H159.973V103.528V99.2145H162.129H164.286V97.0577V94.9008H157.816H151.345V97.0577V99.2145H153.502H155.659V101.371V103.528H153.502H151.345V105.685V107.842H153.502H155.659V109.999V112.156H157.816H159.973V114.313V116.47H162.129H164.286V114.313V112.156H166.443H168.6V118.626V125.097H166.443H164.286V127.254V129.411H166.443H168.6V135.882V142.352H170.757H172.914V144.509V146.666H175.071H177.228V148.823V150.98H179.384H181.541V153.137V155.293H179.384H177.228V161.764V168.235H175.071H172.914V166.078V163.921H168.6H164.286V161.764V159.607H162.129H159.973V168.235V176.862H162.129H164.286V172.548V168.235H166.443H168.6V172.548V176.862H166.443H164.286V179.019V181.176H162.129H159.973V183.333V185.49H157.816H155.659V183.333V181.176H153.502H151.345V179.019V176.862H147.031H142.717V181.176V185.49H147.031H151.345V189.804V194.117H147.031H142.717V189.804V185.49H140.561H138.404V183.333V181.176H134.09H129.776V179.019V176.862H127.619H125.462V172.548V168.235H121.149H116.835V166.078V163.921H114.678H112.521V166.078V168.235H110.364H108.207V166.078V163.921H106.051H103.894V166.078V168.235H101.737H99.5799V163.921V159.607H97.423H95.2661V163.921V168.235H93.1093H90.9524V166.078V163.921H86.6386H82.3249V166.078V168.235H84.4817H86.6386V170.392V172.548H93.1093H99.5799V179.019V185.49H93.1093H86.6386V183.333V181.176H84.4817H82.3249V179.019V176.862H84.4817H86.6386V174.705V172.548H82.3249H78.0111V168.235V163.921H69.3836H60.7561V161.764V159.607H58.5992H56.4423V155.293V150.98H58.5992H60.7561V153.137V155.293H62.9129H65.0698V157.45V159.607H67.2267H69.3836V155.293V150.98H67.2267H65.0698V148.823V146.666H67.2267H69.3836V144.509V142.352H67.2267H65.0698V140.195V138.038H67.2267H69.3836V135.882V133.725H67.2267H65.0698V131.568V129.411H67.2267H69.3836V127.254V125.097H67.2267H65.0698V122.94V120.783H69.3836H73.6973V116.47V112.156H71.5405H69.3836V107.842V103.528H62.9129H56.4423V105.685V107.842H54.2854H52.1285V103.528V99.2145H49.9717H47.8148V97.0577V94.9008H45.6579H43.501V97.0577V99.2145H34.8735H26.246V97.0577V94.9008H28.4028H30.5597V92.7439V90.587H28.4028H26.246V88.4301V86.2732H28.4028H30.5597V84.1164V81.9595H34.8735H39.1873V84.1164V86.2732H41.3441H43.501V88.4301V90.587H47.8148H52.1285V94.9008V99.2145H54.2854H56.4423V92.7439V86.2732H58.5992H60.7561V88.4301V90.587H62.9129H65.0698V88.4301V86.2732H69.3836H73.6973V88.4301V90.587H69.3836H65.0698V92.7439V94.9008H73.6973H82.3249V92.7439V90.587H80.168H78.0111V88.4301V86.2732H80.168H82.3249V84.1164V81.9595H84.4817H86.6386V84.1164V86.2732H90.9524H95.2661V84.1164V81.9595H93.1093H90.9524V79.8026V77.6457H88.7955H86.6386V73.332V69.0182H88.7955H90.9524V73.332V77.6457H93.1093H95.2661V79.8026V81.9595H97.423H99.5799V79.8026V77.6457H106.051H112.521V75.4888V73.332H114.678H116.835V71.1751V69.0182H114.678H112.521V66.8613V64.7044H110.364H108.207V66.8613V69.0182H103.894H99.5799V66.8613V64.7044H97.423H95.2661V62.5476V60.3907H97.423H99.5799V62.5476V64.7044H101.737H103.894V60.3907V56.0769H101.737H99.5799V53.92V51.7632H97.423H95.2661V53.92V56.0769H93.1093H90.9524V58.2338V60.3907H88.7955H86.6386V62.5476V64.7044H84.4817H82.3249V62.5476V60.3907H80.168H78.0111V62.5476V64.7044H75.8542H73.6973V66.8613V69.0182H71.5405H69.3836V66.8613V64.7044H67.2267H65.0698V60.3907V56.0769H67.2267H69.3836V60.3907V64.7044H71.5405H73.6973V62.5476V60.3907H75.8542H78.0111V58.2338V56.0769H75.8542H73.6973V53.92V51.7632H75.8542H78.0111V49.6063V47.4494H80.168H82.3249V45.2925V43.1356H80.168H78.0111V40.9787V38.8219H80.168H82.3249V40.9787V43.1356H84.4817H86.6386V38.8219V34.5081H88.7955H90.9524V38.8219V43.1356H93.1093H95.2661V40.9787V38.8219H97.423H99.5799V45.2925V51.7632H101.737H103.894V53.92V56.0769H108.207H112.521V53.92V51.7632H118.992H125.462V47.4494V43.1356H123.306H121.149V36.665V30.1943H116.835H112.521V25.8806V21.5668H114.678H116.835V23.7237V25.8806H118.992H121.149V28.0375V30.1943H123.306H125.462V25.8806V21.5668H127.619H129.776V23.7237V25.8806H134.09H138.404V21.5668V17.2531H142.717H147.031V19.4099ZM103.894 23.7237V25.8806H101.737H99.5799V23.7237V21.5668H101.737H103.894V23.7237ZM116.835 40.9787V47.4494H110.364H103.894V40.9787V34.5081H110.364H116.835V40.9787ZM65.0698 40.9787V43.1356H62.9129H60.7561V40.9787V38.8219H62.9129H65.0698V40.9787ZM69.3836 49.6063V51.7632H67.2267H65.0698V49.6063V47.4494H67.2267H69.3836V49.6063ZM203.11 56.0769V60.3907H200.953H198.796V62.5476V64.7044H196.64H194.483V66.8613V69.0182H196.64H198.796V71.1751V73.332H196.64H194.483V71.1751V69.0182H192.326H190.169V66.8613V64.7044H185.855H181.541V62.5476V60.3907H185.855H190.169V62.5476V64.7044H192.326H194.483V58.2338V51.7632H198.796H203.11V56.0769ZM138.404 60.3907V64.7044H134.09H129.776V62.5476V60.3907H131.933H134.09V58.2338V56.0769H136.247H138.404V60.3907ZM82.3249 71.1751V73.332H80.168H78.0111V71.1751V69.0182H80.168H82.3249V71.1751ZM159.973 71.1751V73.332H162.129H164.286V77.6457V81.9595H162.129H159.973V77.6457V73.332H157.816H155.659V71.1751V69.0182H157.816H159.973V71.1751ZM26.246 79.8026V81.9595H24.0891H21.9322V79.8026V77.6457H24.0891H26.246V79.8026ZM47.8148 109.999V116.47H41.3441H34.8735V109.999V103.528H41.3441H47.8148V109.999ZM116.835 109.999V116.47H110.364H103.894V109.999V103.528H110.364H116.835V109.999ZM185.855 109.999V116.47H179.384H172.914V109.999V103.528H179.384H185.855V109.999ZM65.0698 109.999V112.156H62.9129H60.7561V109.999V107.842H62.9129H65.0698V109.999ZM30.5597 116.47V120.783H28.4028H26.246V122.94V125.097H24.0891H21.9322V120.783V116.47H19.7753H17.6184V114.313V112.156H24.0891H30.5597V116.47ZM99.5799 114.313V116.47H97.423H95.2661V114.313V112.156H97.423H99.5799V114.313ZM194.483 122.94V125.097H192.326H190.169V122.94V120.783H192.326H194.483V122.94ZM56.4423 140.195V142.352H58.5992H60.7561V144.509V146.666H54.2854H47.8148V144.509V142.352H49.9717H52.1285V140.195V138.038H54.2854H56.4423V140.195ZM43.501 157.45V159.607H41.3441H39.1873V157.45V155.293H41.3441H43.501V157.45ZM185.855 161.764V163.921H188.012H190.169V166.078V168.235H185.855H181.541V163.921V159.607H183.698H185.855V161.764ZM203.11 161.764V163.921H200.953H198.796V166.078V168.235H200.953H203.11V170.392V172.548H198.796H194.483V168.235V163.921H196.64H198.796V161.764V159.607H200.953H203.11V161.764ZM116.835 179.019V185.49H110.364H103.894V179.019V172.548H110.364H116.835V179.019ZM185.855 179.019V185.49H179.384H172.914V179.019V172.548H179.384H185.855V179.019ZM168.6 187.647V189.804H172.914H177.228V191.96V194.117H172.914H168.6V191.96V189.804H166.443H164.286V187.647V185.49H166.443H168.6V187.647ZM69.3836 191.96V194.117H65.0698H60.7561V191.96V189.804H65.0698H69.3836V191.96ZM112.521 191.96V194.117H108.207H103.894V191.96V189.804H108.207H112.521V191.96ZM185.855 191.96V194.117H183.698H181.541V191.96V189.804H183.698H185.855V191.96Z" fill="black"/>
<path id="Vector_6" d="M125.463 36.6651V43.1357H127.62H129.777V40.9789V38.822H131.934H134.09V40.9789V43.1357H136.247H138.404V40.9789V38.822H136.247H134.09V36.6651V34.5082H131.934H129.777V32.3513V30.1945H127.62H125.463V36.6651Z" fill="black"/>
<path id="Vector_7" d="M86.6387 45.293V47.4499H88.7956H90.9524V49.6068V51.7637H93.1093H95.2662V49.6068V47.4499H93.1093H90.9524V45.293V43.1362H88.7956H86.6387V45.293Z" fill="black"/>
<path id="Vector_8" d="M116.835 75.4893V77.6462H114.678H112.521V79.8031V81.96H114.678H116.835V79.8031V77.6462H118.992H121.149V75.4893V73.3324H118.992H116.835V75.4893Z" fill="black"/>
<path id="Vector_9" d="M99.5801 90.5866V94.9004H101.737H103.894V90.5866V86.2729H101.737H99.5801V90.5866Z" fill="black"/>
<path id="Vector_10" d="M34.873 92.7435V94.9004H39.1868H43.5006V92.7435V90.5866H39.1868H34.873V92.7435Z" fill="black"/>
<path id="Vector_11" d="M60.7559 97.058V99.2148H62.9127H65.0696V97.058V94.9011H62.9127H60.7559V97.058Z" fill="black"/>
<path id="Vector_12" d="M69.3838 101.371V103.528H71.5407H73.6975V101.371V99.2146H71.5407H69.3838V101.371Z" fill="black"/>
<path id="Vector_13" d="M78.0107 101.371V103.528H80.1676H82.3245V101.371V99.2146H80.1676H78.0107V101.371Z" fill="black"/>
<path id="Vector_14" d="M142.718 101.371V103.528H147.032H151.345V101.371V99.2146H147.032H142.718V101.371Z" fill="black"/>
<path id="Vector_15" d="M78.0107 109.999V112.156H80.1676H82.3245V109.999V107.842H80.1676H78.0107V109.999Z" fill="black"/>
<path id="Vector_16" d="M134.09 109.999V112.156H131.934H129.777V114.312V116.469H127.62H125.463V118.626V120.783H129.777H134.09V122.94V125.097H131.934H129.777V127.254V129.411H131.934H134.09V131.567V133.724H136.247H138.404V135.881V138.038H142.718H147.032V135.881V133.724H149.189H151.345V135.881V138.038H153.502H155.659V135.881V133.724H153.502H151.345V131.567V129.411H149.189H147.032V127.254V125.097H142.718H138.404V120.783V116.469H136.247H134.09V114.312V112.156H136.247H138.404V109.999V107.842H136.247H134.09V109.999ZM142.718 131.567V133.724H140.561H138.404V131.567V129.411H140.561H142.718V131.567Z" fill="black"/>
<path id="Vector_17" d="M142.718 109.999V112.155H144.875H147.032V116.469V120.783H149.188H151.345V122.94V125.097H153.502H155.659V122.94V120.783H157.816H159.973V122.94V125.097H162.13H164.287V122.94V120.783H162.13H159.973V118.626V116.469H155.659H151.345V114.312V112.155H149.188H147.032V109.999V107.842H144.875H142.718V109.999Z" fill="black"/>
<path id="Vector_18" d="M69.3838 131.568V133.724H71.5407H73.6975V135.881V138.038H71.5407H69.3838V140.195V142.352H71.5407H73.6975V144.509V146.666H71.5407H69.3838V148.823V150.979H71.5407H73.6975V148.823V146.666H82.3251H90.9526V148.823V150.979H88.7957H86.6388V153.136V155.293H88.7957H90.9526V157.45V159.607H93.1095H95.2663V157.45V155.293H97.4232H99.5801V157.45V159.607H108.208H116.835V161.764V163.921H121.149H125.463V166.078V168.234H127.62H129.776V172.548V176.862H131.933H134.09V174.705V172.548H142.718H151.345V174.705V176.862H153.502H155.659V179.019V181.176H157.816H159.973V179.019V176.862H157.816H155.659V172.548V168.234H153.502H151.345V166.078V163.921H144.875H138.404V166.078V168.234H134.09H129.776V166.078V163.921H131.933H134.09V161.764V159.607H136.247H138.404V155.293V150.979H140.561H142.718V148.823V146.666H140.561H138.404V144.509V142.352H136.247H134.09V140.195V138.038H129.776H125.463V140.195V142.352H123.306H121.149V146.666V150.979H118.992H116.835V153.136V155.293H114.678H112.521V153.136V150.979H108.208H103.894V153.136V155.293H101.737H99.5801V150.979V146.666H95.2663H90.9526V144.509V142.352H93.1095H95.2663V138.038V133.724H99.5801H103.894V135.881V138.038H106.051H108.208V135.881V133.724H106.051H103.894V131.568V129.411H99.5801H95.2663V131.568V133.724H90.9526H86.6388V131.568V129.411H78.0113H69.3838V131.568ZM90.9526 140.195V142.352H86.6388H82.3251V140.195V138.038H86.6388H90.9526V140.195ZM134.09 144.509V146.666H131.933H129.776V150.979V155.293H131.933H134.09V157.45V159.607H127.62H121.149V157.45V155.293H123.306H125.463V150.979V146.666H127.62H129.776V144.509V142.352H131.933H134.09V144.509Z" fill="black"/>
<path id="Vector_19" d="M159.973 135.881V138.038H162.13H164.286V135.881V133.724H162.13H159.973V135.881Z" fill="black"/>
<path id="Vector_20" d="M112.521 140.195V142.352H110.364H108.207V144.509V146.666H110.364H112.521V144.509V142.352H114.678H116.835V140.195V138.038H114.678H112.521V140.195Z" fill="black"/>
<path id="Vector_21" d="M147.031 144.509V146.666H149.188H151.345V148.823V150.98H149.188H147.031V153.137V155.294H149.188H151.345V157.451V159.607H155.659H159.973V157.451V155.294H162.129H164.286V157.451V159.607H166.443H168.6V157.451V155.294H172.914H177.228V153.137V150.98H175.071H172.914V148.823V146.666H168.6H164.286V144.509V142.352H162.129H159.973V144.509V146.666H162.129H164.286V148.823V150.98H159.973H155.659V146.666V142.352H151.345H147.031V144.509ZM155.659 153.137V155.294H153.502H151.345V153.137V150.98H153.502H155.659V153.137Z" fill="black"/>
<path id="Vector_22" d="M78.0107 161.764V163.921H80.1676H82.3245V161.764V159.607H80.1676H78.0107V161.764Z" fill="black"/>
<path id="Vector_23" d="M86.6387 179.019V181.176H90.9524H95.2662V179.019V176.862H90.9524H86.6387V179.019Z" fill="black"/>
<path id="Vector_24" d="M108.207 40.9789V43.1357H110.364H112.521V40.9789V38.822H110.364H108.207V40.9789Z" fill="black"/>
<path id="Vector_25" d="M39.1875 109.999V112.156H41.3444H43.5013V109.999V107.842H41.3444H39.1875V109.999Z" fill="black"/>
<path id="Vector_26" d="M108.207 109.999V112.156H110.364H112.521V109.999V107.842H110.364H108.207V109.999Z" fill="black"/>
<path id="Vector_27" d="M177.228 109.999V112.156H179.384H181.541V109.999V107.842H179.384H177.228V109.999Z" fill="black"/>
<path id="Vector_28" d="M108.207 179.019V181.176H110.364H112.521V179.019V176.862H110.364H108.207V179.019Z" fill="black"/>
<path id="Vector_29" d="M177.228 179.019V181.176H179.384H181.541V179.019V176.862H179.384H177.228V179.019Z" fill="black"/>
<path id="Vector_30" d="M82.3252 15.0961V17.2529H86.639H90.9527V15.0961V12.9392H86.639H82.3252V15.0961Z" fill="black"/>
<path id="Vector_31" d="M177.228 28.0376V43.1357H192.326H207.424V28.0376V12.9394H192.326H177.228V28.0376ZM203.11 28.0376V38.822H192.326H181.541V28.0376V17.2532H192.326H203.11V28.0376Z" fill="black"/>
<path id="Vector_32" d="M185.855 28.0372V34.5078H192.326H198.797V28.0372V21.5665H192.326H185.855V28.0372Z" fill="black"/>
<path id="Vector_33" d="M13.3047 53.9204V60.391H15.4616H17.6184V64.7048V69.0186H19.7753H21.9322V62.5479V56.0773H26.246H30.5597V58.2342V60.391H28.4028H26.246V62.5479V64.7048H28.4028H30.5597V62.5479V60.391H32.7166H34.8735V62.5479V64.7048H37.0304H39.1873V66.8617V69.0186H41.3441H43.501V66.8617V64.7048H45.6579H47.8148V62.5479V60.391H52.1285H56.4423V58.2342V56.0773H52.1285H47.8148V58.2342V60.391H45.6579H43.501V58.2342V56.0773H37.0304H30.5597V51.7635V47.4497H28.4028H26.246V49.6066V51.7635H24.0891H21.9322V49.6066V47.4497H17.6184H13.3047V53.9204ZM21.9322 53.9204V56.0773H19.7753H17.6184V53.9204V51.7635H19.7753H21.9322V53.9204ZM43.501 62.5479V64.7048H41.3441H39.1873V62.5479V60.391H41.3441H43.501V62.5479Z" fill="black"/>
<path id="Vector_34" d="M13.3047 90.5866V94.9004H15.4616H17.6184V90.5866V86.2729H15.4616H13.3047V90.5866Z" fill="black"/>
<path id="Vector_35" d="M198.796 92.7435V94.9004H203.11H207.423V92.7435V90.5866H203.11H198.796V92.7435Z" fill="black"/>
<path id="Vector_36" d="M198.796 101.371V103.528H200.953H203.11V101.371V99.2146H200.953H198.796V101.371Z" fill="black"/>
<path id="Vector_37" d="M30.5596 148.823V150.979H32.7165H34.8733V148.823V146.666H32.7165H30.5596V148.823Z" fill="black"/>
<path id="Vector_38" d="M13.3047 191.96V207.059H28.4028H43.501V191.96V176.862H28.4028H13.3047V191.96ZM39.1872 191.96V202.745H28.4028H17.6184V191.96V181.176H28.4028H39.1872V191.96Z" fill="black"/>
<path id="Vector_39" d="M21.9326 191.96V198.431H28.4033H34.8739V191.96V185.489H28.4033H21.9326V191.96Z" fill="black"/>
<path id="Vector_40" d="M198.796 185.49V189.803H200.953H203.11V191.96V194.117H205.267H207.423V187.647V181.176H203.11H198.796V185.49Z" fill="black"/>
<path id="Vector_41" d="M47.8145 202.745V207.059H49.9713H52.1282V202.745V198.431H49.9713H47.8145V202.745Z" fill="black"/>
<path id="Vector_42" d="M78.0107 200.588V202.745H84.4814H90.952V204.902V207.059H95.2658H99.5795V204.902V202.745H95.2658H90.952V200.588V198.431H84.4814H78.0107V200.588Z" fill="black"/>
<path id="Vector_43" d="M69.3838 204.902V207.059H71.5407H73.6975V204.902V202.745H71.5407H69.3838V204.902Z" fill="black"/>
<path id="Vector_44" d="M198.796 204.902V207.059H200.953H203.11V204.902V202.745H200.953H198.796V204.902Z" fill="black"/>
</g>
</g>
</g>
<defs>
<clipPath id="clip0_1068_830">
<rect width="220" height="220" fill="white" transform="translate(0.363281)"/>
</clipPath>
</defs>
</svg>
