<svg width="18" height="22" viewBox="0 0 18 22" fill="none" xmlns="http://www.w3.org/2000/svg">
<g id="STAY">
<g id="Group 88026">
<g id="Vector">
<path d="M9.2373 0.79526C9.56984 0.84453 9.90697 0.874321 10.2338 0.946507C13.636 1.69472 15.8721 3.73655 16.8422 7.07201C17.5038 9.34644 17.1243 11.5338 15.9799 13.5951C15.4994 14.4602 14.9088 15.2496 14.2701 16.0024C13.9548 16.3737 13.4468 16.4172 13.089 16.1159C12.7393 15.8214 12.7015 15.3276 12.9962 14.9472C13.4308 14.3869 13.8631 13.8243 14.3034 13.2536C14.2254 13.1712 14.1773 13.115 14.1245 13.0634C12.4744 11.4169 10.8232 9.76924 9.17193 8.12386C8.77174 7.72512 8.29815 7.72741 7.8991 8.12844C6.30405 9.73258 4.71014 11.339 3.10936 12.9386C2.97749 13.0703 2.98322 13.1551 3.0761 13.2983C3.75839 14.3422 4.57942 15.2714 5.41536 16.1904C6.51963 17.4049 7.64339 18.6034 8.59285 19.9475C8.60891 19.9692 8.61464 19.999 8.63528 20.0494C8.83481 19.779 8.99649 19.5487 9.16964 19.3287C9.46778 18.9495 9.76822 18.5714 10.0778 18.2013C10.392 17.8266 10.8977 17.7807 11.2578 18.0798C11.611 18.3731 11.6488 18.8635 11.3598 19.2474C10.767 20.0345 10.1787 20.824 9.59162 21.6158C9.41962 21.8484 9.19487 21.9721 8.90705 21.9813C8.89329 21.9813 8.87953 21.9801 8.86577 21.9824C8.23164 22.0718 7.81883 21.8186 7.47253 21.2652C6.74438 20.0987 5.80868 19.087 4.88559 18.0695C3.86159 16.9409 2.81007 15.8352 1.94202 14.5748C1.11067 13.3682 0.493746 12.0712 0.274727 10.6103C-0.083042 8.2224 0.446731 6.04421 1.91679 4.12498C3.29397 2.32721 5.12525 1.25817 7.3613 0.889217C7.59752 0.850259 7.83718 0.823906 8.07455 0.792969C8.46442 0.79526 8.85086 0.79526 9.2373 0.79526ZM2.22755 11.5395C2.29062 11.4536 2.32502 11.3906 2.37318 11.3424C3.84554 9.85976 5.31904 8.37594 6.79484 6.8967C7.75462 5.93422 9.31068 5.93307 10.2773 6.89097C10.7234 7.3321 11.1683 7.77553 11.611 8.22011C11.6912 8.30031 11.7612 8.39198 11.8357 8.47791C11.8529 8.46531 11.8713 8.45385 11.8885 8.44125C11.8885 8.09178 11.8885 7.7423 11.8885 7.39283C11.8885 7.12128 11.9894 6.89211 12.2049 6.72712C12.4675 6.5266 12.7588 6.48535 13.0615 6.62743C13.3792 6.77639 13.5408 7.03649 13.5431 7.38481C13.5477 8.23959 13.5477 9.09551 13.542 9.95028C13.5408 10.0935 13.5844 10.1932 13.6865 10.2917C14.097 10.6905 14.4995 11.0984 14.9054 11.5017C14.9524 11.5487 15.0029 11.5911 15.0568 11.6415C16.051 9.04738 15.3469 5.79328 12.7771 3.83395C10.3003 1.94565 6.84988 1.98919 4.39022 3.9554C1.87437 5.9663 1.34918 9.16196 2.22755 11.5395Z" fill="#0077EC"/>
<path d="M9.2373 0.79526C9.56984 0.84453 9.90697 0.874321 10.2338 0.946507C13.636 1.69472 15.8721 3.73655 16.8422 7.07201C17.5038 9.34644 17.1243 11.5338 15.9799 13.5951C15.4994 14.4602 14.9088 15.2496 14.2701 16.0024C13.9548 16.3737 13.4468 16.4172 13.089 16.1159C12.7393 15.8214 12.7015 15.3276 12.9962 14.9472C13.4308 14.3869 13.8631 13.8243 14.3034 13.2536C14.2254 13.1712 14.1773 13.115 14.1245 13.0634C12.4744 11.4169 10.8232 9.76924 9.17193 8.12386C8.77174 7.72512 8.29815 7.72741 7.8991 8.12844C6.30405 9.73258 4.71014 11.339 3.10936 12.9386C2.97749 13.0703 2.98322 13.1551 3.0761 13.2983C3.75839 14.3422 4.57942 15.2714 5.41536 16.1904C6.51963 17.4049 7.64339 18.6034 8.59285 19.9475C8.60891 19.9692 8.61464 19.999 8.63528 20.0494C8.83481 19.779 8.99649 19.5487 9.16964 19.3287C9.46778 18.9495 9.76822 18.5714 10.0778 18.2013C10.392 17.8266 10.8977 17.7807 11.2578 18.0798C11.611 18.3731 11.6488 18.8635 11.3598 19.2474C10.767 20.0345 10.1787 20.824 9.59162 21.6158C9.41962 21.8484 9.19487 21.9721 8.90705 21.9813C8.89329 21.9813 8.87953 21.9801 8.86577 21.9824C8.23164 22.0718 7.81883 21.8186 7.47253 21.2652C6.74438 20.0987 5.80868 19.087 4.88559 18.0695C3.86159 16.9409 2.81007 15.8352 1.94202 14.5748C1.11067 13.3682 0.493746 12.0712 0.274727 10.6103C-0.083042 8.2224 0.446731 6.04421 1.91679 4.12498C3.29397 2.32721 5.12525 1.25817 7.3613 0.889217C7.59752 0.850259 7.83718 0.823906 8.07455 0.792969C8.46442 0.79526 8.85086 0.79526 9.2373 0.79526ZM2.22755 11.5395C2.29062 11.4536 2.32502 11.3906 2.37318 11.3424C3.84554 9.85976 5.31904 8.37594 6.79484 6.8967C7.75462 5.93422 9.31068 5.93307 10.2773 6.89097C10.7234 7.3321 11.1683 7.77553 11.611 8.22011C11.6912 8.30031 11.7612 8.39198 11.8357 8.47791C11.8529 8.46531 11.8713 8.45385 11.8885 8.44125C11.8885 8.09178 11.8885 7.7423 11.8885 7.39283C11.8885 7.12128 11.9894 6.89211 12.2049 6.72712C12.4675 6.5266 12.7588 6.48535 13.0615 6.62743C13.3792 6.77639 13.5408 7.03649 13.5431 7.38481C13.5477 8.23959 13.5477 9.09551 13.542 9.95028C13.5408 10.0935 13.5844 10.1932 13.6865 10.2917C14.097 10.6905 14.4995 11.0984 14.9054 11.5017C14.9524 11.5487 15.0029 11.5911 15.0568 11.6415C16.051 9.04738 15.3469 5.79328 12.7771 3.83395C10.3003 1.94565 6.84988 1.98919 4.39022 3.9554C1.87437 5.9663 1.34918 9.16196 2.22755 11.5395Z" fill="#0077EC"/>
<path d="M9.2373 0.79526C9.56984 0.84453 9.90697 0.874321 10.2338 0.946507C13.636 1.69472 15.8721 3.73655 16.8422 7.07201C17.5038 9.34644 17.1243 11.5338 15.9799 13.5951C15.4994 14.4602 14.9088 15.2496 14.2701 16.0024C13.9548 16.3737 13.4468 16.4172 13.089 16.1159C12.7393 15.8214 12.7015 15.3276 12.9962 14.9472C13.4308 14.3869 13.8631 13.8243 14.3034 13.2536C14.2254 13.1712 14.1773 13.115 14.1245 13.0634C12.4744 11.4169 10.8232 9.76924 9.17193 8.12386C8.77174 7.72512 8.29815 7.72741 7.8991 8.12844C6.30405 9.73258 4.71014 11.339 3.10936 12.9386C2.97749 13.0703 2.98322 13.1551 3.0761 13.2983C3.75839 14.3422 4.57942 15.2714 5.41536 16.1904C6.51963 17.4049 7.64339 18.6034 8.59285 19.9475C8.60891 19.9692 8.61464 19.999 8.63528 20.0494C8.83481 19.779 8.99649 19.5487 9.16964 19.3287C9.46778 18.9495 9.76822 18.5714 10.0778 18.2013C10.392 17.8266 10.8977 17.7807 11.2578 18.0798C11.611 18.3731 11.6488 18.8635 11.3598 19.2474C10.767 20.0345 10.1787 20.824 9.59162 21.6158C9.41962 21.8484 9.19487 21.9721 8.90705 21.9813C8.89329 21.9813 8.87953 21.9801 8.86577 21.9824C8.23164 22.0718 7.81883 21.8186 7.47253 21.2652C6.74438 20.0987 5.80868 19.087 4.88559 18.0695C3.86159 16.9409 2.81007 15.8352 1.94202 14.5748C1.11067 13.3682 0.493746 12.0712 0.274727 10.6103C-0.083042 8.2224 0.446731 6.04421 1.91679 4.12498C3.29397 2.32721 5.12525 1.25817 7.3613 0.889217C7.59752 0.850259 7.83718 0.823906 8.07455 0.792969C8.46442 0.79526 8.85086 0.79526 9.2373 0.79526ZM2.22755 11.5395C2.29062 11.4536 2.32502 11.3906 2.37318 11.3424C3.84554 9.85976 5.31904 8.37594 6.79484 6.8967C7.75462 5.93422 9.31068 5.93307 10.2773 6.89097C10.7234 7.3321 11.1683 7.77553 11.611 8.22011C11.6912 8.30031 11.7612 8.39198 11.8357 8.47791C11.8529 8.46531 11.8713 8.45385 11.8885 8.44125C11.8885 8.09178 11.8885 7.7423 11.8885 7.39283C11.8885 7.12128 11.9894 6.89211 12.2049 6.72712C12.4675 6.5266 12.7588 6.48535 13.0615 6.62743C13.3792 6.77639 13.5408 7.03649 13.5431 7.38481C13.5477 8.23959 13.5477 9.09551 13.542 9.95028C13.5408 10.0935 13.5844 10.1932 13.6865 10.2917C14.097 10.6905 14.4995 11.0984 14.9054 11.5017C14.9524 11.5487 15.0029 11.5911 15.0568 11.6415C16.051 9.04738 15.3469 5.79328 12.7771 3.83395C10.3003 1.94565 6.84988 1.98919 4.39022 3.9554C1.87437 5.9663 1.34918 9.16196 2.22755 11.5395Z" fill="#0077EC"/>
</g>
<g id="Vector_2">
<path d="M9.92399 13.4448C9.92399 13.5915 9.92747 13.7382 9.92399 13.886C9.91006 14.3423 9.56545 14.6973 9.11408 14.7113C8.81471 14.7206 8.51418 14.7218 8.21482 14.7113C7.77273 14.6961 7.42695 14.3446 7.41419 13.9C7.40491 13.5996 7.40491 13.2982 7.41419 12.9978C7.42927 12.5544 7.77853 12.2075 8.22178 12.1935C8.52115 12.1842 8.82167 12.1842 9.12104 12.1935C9.56312 12.2086 9.90542 12.559 9.92283 13.0048C9.92863 13.1503 9.92399 13.297 9.92399 13.4448Z" fill="#0077EC"/>
<path d="M9.92399 13.4448C9.92399 13.5915 9.92747 13.7382 9.92399 13.886C9.91006 14.3423 9.56545 14.6973 9.11408 14.7113C8.81471 14.7206 8.51418 14.7218 8.21482 14.7113C7.77273 14.6961 7.42695 14.3446 7.41419 13.9C7.40491 13.5996 7.40491 13.2982 7.41419 12.9978C7.42927 12.5544 7.77853 12.2075 8.22178 12.1935C8.52115 12.1842 8.82167 12.1842 9.12104 12.1935C9.56312 12.2086 9.90542 12.559 9.92283 13.0048C9.92863 13.1503 9.92399 13.297 9.92399 13.4448Z" fill="#0077EC"/>
<path d="M9.92399 13.4448C9.92399 13.5915 9.92747 13.7382 9.92399 13.886C9.91006 14.3423 9.56545 14.6973 9.11408 14.7113C8.81471 14.7206 8.51418 14.7218 8.21482 14.7113C7.77273 14.6961 7.42695 14.3446 7.41419 13.9C7.40491 13.5996 7.40491 13.2982 7.41419 12.9978C7.42927 12.5544 7.77853 12.2075 8.22178 12.1935C8.52115 12.1842 8.82167 12.1842 9.12104 12.1935C9.56312 12.2086 9.90542 12.559 9.92283 13.0048C9.92863 13.1503 9.92399 13.297 9.92399 13.4448Z" fill="#0077EC"/>
</g>
</g>
</g>
</svg>
